<mxfile host="app.diagrams.net" modified="2024-05-04T22:17:13.868Z" agent="Mozilla/5.0 (Windows NT 10.0; Win64; x64) AppleWebKit/537.36 (KHTML, like Gecko) Chrome/124.0.0.0 Safari/537.36" etag="Qkx2CHNaWMCf8Aav8ZE9" version="24.3.1" type="device">
  <diagram id="YrfzH3xwVrYN7FTBeiER" name="Page-1">
    <mxGraphModel dx="882" dy="578" grid="1" gridSize="10" guides="1" tooltips="1" connect="1" arrows="1" fold="1" page="1" pageScale="1" pageWidth="850" pageHeight="1100" math="0" shadow="0">
      <root>
        <mxCell id="0" />
        <mxCell id="1" parent="0" />
        <mxCell id="W2C-pqZ3fu2_AHB15Ob1-2" value="Metadata DB" style="rounded=1;whiteSpace=wrap;html=1;" parent="1" vertex="1">
          <mxGeometry x="120" y="480" width="80" height="40" as="geometry" />
        </mxCell>
        <mxCell id="W2C-pqZ3fu2_AHB15Ob1-3" value="Attachment store" style="rounded=1;whiteSpace=wrap;html=1;" parent="1" vertex="1">
          <mxGeometry x="280" y="480" width="80" height="40" as="geometry" />
        </mxCell>
        <mxCell id="W2C-pqZ3fu2_AHB15Ob1-4" value="Distributed cache" style="rounded=1;whiteSpace=wrap;html=1;" parent="1" vertex="1">
          <mxGeometry x="480" y="480" width="80" height="40" as="geometry" />
        </mxCell>
        <mxCell id="W2C-pqZ3fu2_AHB15Ob1-5" value="Search store" style="rounded=1;whiteSpace=wrap;html=1;" parent="1" vertex="1">
          <mxGeometry x="640" y="480" width="80" height="40" as="geometry" />
        </mxCell>
        <mxCell id="W2C-pqZ3fu2_AHB15Ob1-12" value="" style="swimlane;startSize=0;" parent="1" vertex="1">
          <mxGeometry x="80" y="440" width="680" height="120" as="geometry" />
        </mxCell>
        <mxCell id="EYAoF9VQQBNejwMc4ofB-10" style="edgeStyle=orthogonalEdgeStyle;rounded=0;orthogonalLoop=1;jettySize=auto;html=1;exitX=0.5;exitY=1;exitDx=0;exitDy=0;entryX=0.5;entryY=0;entryDx=0;entryDy=0;" edge="1" parent="1" source="EYAoF9VQQBNejwMc4ofB-1" target="EYAoF9VQQBNejwMc4ofB-2">
          <mxGeometry relative="1" as="geometry" />
        </mxCell>
        <mxCell id="EYAoF9VQQBNejwMc4ofB-1" value="Load balancer" style="rounded=1;whiteSpace=wrap;html=1;" vertex="1" parent="1">
          <mxGeometry x="120" y="280" width="80" height="40" as="geometry" />
        </mxCell>
        <mxCell id="EYAoF9VQQBNejwMc4ofB-7" style="edgeStyle=orthogonalEdgeStyle;rounded=0;orthogonalLoop=1;jettySize=auto;html=1;exitX=1;exitY=0.5;exitDx=0;exitDy=0;entryX=0;entryY=0.5;entryDx=0;entryDy=0;" edge="1" parent="1" source="EYAoF9VQQBNejwMc4ofB-2" target="EYAoF9VQQBNejwMc4ofB-5">
          <mxGeometry relative="1" as="geometry" />
        </mxCell>
        <mxCell id="EYAoF9VQQBNejwMc4ofB-12" style="edgeStyle=orthogonalEdgeStyle;rounded=0;orthogonalLoop=1;jettySize=auto;html=1;exitX=0.75;exitY=0;exitDx=0;exitDy=0;entryX=0;entryY=0.5;entryDx=0;entryDy=0;" edge="1" parent="1" source="EYAoF9VQQBNejwMc4ofB-2" target="EYAoF9VQQBNejwMc4ofB-6">
          <mxGeometry relative="1" as="geometry">
            <Array as="points">
              <mxPoint x="180" y="340" />
              <mxPoint x="240" y="340" />
              <mxPoint x="240" y="300" />
            </Array>
          </mxGeometry>
        </mxCell>
        <mxCell id="EYAoF9VQQBNejwMc4ofB-25" style="edgeStyle=orthogonalEdgeStyle;rounded=0;orthogonalLoop=1;jettySize=auto;html=1;exitX=0.5;exitY=1;exitDx=0;exitDy=0;entryX=0.5;entryY=0;entryDx=0;entryDy=0;" edge="1" parent="1" source="EYAoF9VQQBNejwMc4ofB-2" target="W2C-pqZ3fu2_AHB15Ob1-12">
          <mxGeometry relative="1" as="geometry" />
        </mxCell>
        <mxCell id="EYAoF9VQQBNejwMc4ofB-2" value="Web server" style="rounded=1;whiteSpace=wrap;html=1;" vertex="1" parent="1">
          <mxGeometry x="120" y="360" width="80" height="40" as="geometry" />
        </mxCell>
        <mxCell id="EYAoF9VQQBNejwMc4ofB-9" style="edgeStyle=orthogonalEdgeStyle;rounded=0;orthogonalLoop=1;jettySize=auto;html=1;exitX=0.5;exitY=1;exitDx=0;exitDy=0;entryX=0.5;entryY=0;entryDx=0;entryDy=0;" edge="1" parent="1" source="EYAoF9VQQBNejwMc4ofB-3" target="EYAoF9VQQBNejwMc4ofB-1">
          <mxGeometry relative="1" as="geometry" />
        </mxCell>
        <mxCell id="EYAoF9VQQBNejwMc4ofB-3" value="Webmail" style="rounded=1;whiteSpace=wrap;html=1;" vertex="1" parent="1">
          <mxGeometry x="120" y="200" width="80" height="40" as="geometry" />
        </mxCell>
        <mxCell id="EYAoF9VQQBNejwMc4ofB-19" style="edgeStyle=orthogonalEdgeStyle;rounded=0;orthogonalLoop=1;jettySize=auto;html=1;exitX=1;exitY=0.5;exitDx=0;exitDy=0;entryX=0;entryY=0.5;entryDx=0;entryDy=0;" edge="1" parent="1" source="EYAoF9VQQBNejwMc4ofB-5" target="EYAoF9VQQBNejwMc4ofB-18">
          <mxGeometry relative="1" as="geometry" />
        </mxCell>
        <mxCell id="EYAoF9VQQBNejwMc4ofB-5" value="Outgoing queue" style="rounded=1;whiteSpace=wrap;html=1;" vertex="1" parent="1">
          <mxGeometry x="280" y="360" width="80" height="40" as="geometry" />
        </mxCell>
        <mxCell id="EYAoF9VQQBNejwMc4ofB-6" value="Error queue" style="rounded=1;whiteSpace=wrap;html=1;" vertex="1" parent="1">
          <mxGeometry x="280" y="280" width="80" height="40" as="geometry" />
        </mxCell>
        <mxCell id="EYAoF9VQQBNejwMc4ofB-26" style="edgeStyle=orthogonalEdgeStyle;rounded=0;orthogonalLoop=1;jettySize=auto;html=1;exitX=0.5;exitY=1;exitDx=0;exitDy=0;" edge="1" parent="1" source="EYAoF9VQQBNejwMc4ofB-11">
          <mxGeometry relative="1" as="geometry">
            <mxPoint x="420" y="440" as="targetPoint" />
          </mxGeometry>
        </mxCell>
        <mxCell id="EYAoF9VQQBNejwMc4ofB-11" value="" style="swimlane;startSize=0;" vertex="1" parent="1">
          <mxGeometry x="440" y="40" width="160" height="360" as="geometry" />
        </mxCell>
        <mxCell id="EYAoF9VQQBNejwMc4ofB-13" value="Check virus" style="rounded=1;whiteSpace=wrap;html=1;" vertex="1" parent="EYAoF9VQQBNejwMc4ofB-11">
          <mxGeometry x="40" y="120" width="80" height="40" as="geometry" />
        </mxCell>
        <mxCell id="EYAoF9VQQBNejwMc4ofB-14" value="Check spam" style="rounded=1;whiteSpace=wrap;html=1;" vertex="1" parent="EYAoF9VQQBNejwMc4ofB-11">
          <mxGeometry x="40" y="40" width="80" height="40" as="geometry" />
        </mxCell>
        <mxCell id="EYAoF9VQQBNejwMc4ofB-22" style="edgeStyle=orthogonalEdgeStyle;rounded=0;orthogonalLoop=1;jettySize=auto;html=1;exitX=0.5;exitY=1;exitDx=0;exitDy=0;entryX=0.5;entryY=0;entryDx=0;entryDy=0;" edge="1" parent="EYAoF9VQQBNejwMc4ofB-11" source="EYAoF9VQQBNejwMc4ofB-17" target="EYAoF9VQQBNejwMc4ofB-18">
          <mxGeometry relative="1" as="geometry" />
        </mxCell>
        <mxCell id="EYAoF9VQQBNejwMc4ofB-17" value="Retry" style="rounded=1;whiteSpace=wrap;html=1;" vertex="1" parent="EYAoF9VQQBNejwMc4ofB-11">
          <mxGeometry x="40" y="200" width="80" height="40" as="geometry" />
        </mxCell>
        <mxCell id="EYAoF9VQQBNejwMc4ofB-21" style="edgeStyle=orthogonalEdgeStyle;rounded=0;orthogonalLoop=1;jettySize=auto;html=1;exitX=0.5;exitY=0;exitDx=0;exitDy=0;entryX=0.5;entryY=1;entryDx=0;entryDy=0;" edge="1" parent="EYAoF9VQQBNejwMc4ofB-11" source="EYAoF9VQQBNejwMc4ofB-18" target="EYAoF9VQQBNejwMc4ofB-17">
          <mxGeometry relative="1" as="geometry" />
        </mxCell>
        <mxCell id="EYAoF9VQQBNejwMc4ofB-23" style="edgeStyle=orthogonalEdgeStyle;rounded=0;orthogonalLoop=1;jettySize=auto;html=1;exitX=0.25;exitY=0;exitDx=0;exitDy=0;entryX=0;entryY=0.5;entryDx=0;entryDy=0;" edge="1" parent="EYAoF9VQQBNejwMc4ofB-11" source="EYAoF9VQQBNejwMc4ofB-18" target="EYAoF9VQQBNejwMc4ofB-13">
          <mxGeometry relative="1" as="geometry">
            <Array as="points">
              <mxPoint x="60" y="260" />
              <mxPoint x="20" y="260" />
              <mxPoint x="20" y="140" />
            </Array>
          </mxGeometry>
        </mxCell>
        <mxCell id="EYAoF9VQQBNejwMc4ofB-24" style="edgeStyle=orthogonalEdgeStyle;rounded=0;orthogonalLoop=1;jettySize=auto;html=1;exitX=0.75;exitY=0;exitDx=0;exitDy=0;entryX=1;entryY=0.5;entryDx=0;entryDy=0;" edge="1" parent="EYAoF9VQQBNejwMc4ofB-11" source="EYAoF9VQQBNejwMc4ofB-18" target="EYAoF9VQQBNejwMc4ofB-14">
          <mxGeometry relative="1" as="geometry">
            <Array as="points">
              <mxPoint x="100" y="260" />
              <mxPoint x="140" y="260" />
              <mxPoint x="140" y="60" />
            </Array>
          </mxGeometry>
        </mxCell>
        <mxCell id="EYAoF9VQQBNejwMc4ofB-18" value="SMTP outgoing" style="rounded=1;whiteSpace=wrap;html=1;" vertex="1" parent="EYAoF9VQQBNejwMc4ofB-11">
          <mxGeometry x="40" y="280" width="80" height="40" as="geometry" />
        </mxCell>
        <mxCell id="EYAoF9VQQBNejwMc4ofB-15" value="Internet" style="rounded=1;whiteSpace=wrap;html=1;" vertex="1" parent="1">
          <mxGeometry x="640" y="320" width="80" height="40" as="geometry" />
        </mxCell>
        <mxCell id="EYAoF9VQQBNejwMc4ofB-20" style="edgeStyle=orthogonalEdgeStyle;rounded=0;orthogonalLoop=1;jettySize=auto;html=1;exitX=1;exitY=0.5;exitDx=0;exitDy=0;" edge="1" parent="1" source="EYAoF9VQQBNejwMc4ofB-18" target="EYAoF9VQQBNejwMc4ofB-15">
          <mxGeometry relative="1" as="geometry" />
        </mxCell>
        <mxCell id="EYAoF9VQQBNejwMc4ofB-28" value="HTTPS" style="text;html=1;align=center;verticalAlign=middle;whiteSpace=wrap;rounded=0;" vertex="1" parent="1">
          <mxGeometry x="160" y="240" width="80" height="40" as="geometry" />
        </mxCell>
      </root>
    </mxGraphModel>
  </diagram>
</mxfile>
